<svg width="48" height="48" viewBox="0 0 48 48" fill="none" xmlns="http://www.w3.org/2000/svg">
<rect width="48" height="48" fill="#323238"/>
<path d="M36.625 32.9792C36.625 34.9931 34.9931 36.625 32.9792 36.625H14.0208C12.0076 36.625 10.375 34.9931 10.375 32.9792V14.0208C10.375 12.0069 12.0076 10.375 14.0208 10.375H32.9792C34.9931 10.375 36.625 12.0069 36.625 14.0208V32.9792Z" fill="white"/>
<path d="M14.75 19.8542H18.3958V32.25H14.75V19.8542ZM16.562 18.3958H16.5416C15.4536 18.3958 14.75 17.585 14.75 16.5722C14.75 15.5375 15.4755 14.75 16.5831 14.75C17.6922 14.75 18.3754 15.5375 18.3958 16.5722C18.3958 17.5843 17.6922 18.3958 16.562 18.3958ZM32.25 32.25H28.6042V25.6153C28.6042 24.0126 27.7109 22.9189 26.2767 22.9189C25.1822 22.9189 24.5901 23.6568 24.3028 24.3699C24.1978 24.6251 24.2292 25.3309 24.2292 25.6875V32.25H20.5833V19.8542H24.2292V21.7617C24.7549 20.9479 25.5781 19.8542 27.684 19.8542C30.2929 19.8542 32.2493 21.4948 32.2493 25.1581L32.25 32.25Z" fill="#29292E"/>
</svg>
